<svg xmlns="http://www.w3.org/2000/svg" xmlns:xlink="http://www.w3.org/1999/xlink" width="512" zoomAndPan="magnify" viewBox="0 0 384 383.999986" height="512" preserveAspectRatio="xMidYMid meet" version="1.0"><defs><clipPath id="4e20b6b0f6"><path d="M 192 0 C 85.960938 0 0 85.960938 0 192 C 0 298.039062 85.960938 384 192 384 C 298.039062 384 384 298.039062 384 192 C 384 85.960938 298.039062 0 192 0 Z M 192 0 " clip-rule="nonzero"/></clipPath><clipPath id="6ad793e583"><path d="M 0 0 L 384 0 L 384 384 L 0 384 Z M 0 0 " clip-rule="nonzero"/></clipPath><clipPath id="7f53d260a9"><path d="M 192 0 C 85.960938 0 0 85.960938 0 192 C 0 298.039062 85.960938 384 192 384 C 298.039062 384 384 298.039062 384 192 C 384 85.960938 298.039062 0 192 0 Z M 192 0 " clip-rule="nonzero"/></clipPath><clipPath id="bc90c9174a"><rect x="0" width="384" y="0" height="384"/></clipPath><clipPath id="dcdfbb702e"><path d="M 58.222656 115 L 325.972656 115 L 325.972656 334.800781 L 58.222656 334.800781 Z M 58.222656 115 " clip-rule="nonzero"/></clipPath><clipPath id="bdc65fc115"><path d="M 115 49.050781 L 181 49.050781 L 181 113 L 115 113 Z M 115 49.050781 " clip-rule="nonzero"/></clipPath></defs><path stroke-linecap="butt" transform="matrix(0, 0.75, -0.75, 0, 89.723489, 8.275468)" fill="none" stroke-linejoin="miter" d="M 0.00250049 1.00111 L 158.971263 1.00111 " stroke="#ffffff" stroke-width="2" stroke-opacity="1" stroke-miterlimit="4"/><path stroke-linecap="butt" transform="matrix(0, 0.75, -0.75, 0, 297.611936, 244.129989)" fill="none" stroke-linejoin="miter" d="M -0.0014443 0.998206 L 158.972527 0.998206 " stroke="#ffffff" stroke-width="2" stroke-opacity="1" stroke-miterlimit="4"/><path stroke-linecap="butt" transform="matrix(0, 0.75, -0.75, 0, 305.954251, 266.77243)" fill="none" stroke-linejoin="miter" d="M 0.00134323 1.001501 L 158.970106 1.001501 " stroke="#ffffff" stroke-width="2" stroke-opacity="1" stroke-miterlimit="4"/><path stroke-linecap="butt" transform="matrix(0, 0.75, -0.75, 0, 81.540747, -15.424507)" fill="none" stroke-linejoin="miter" d="M -0.00169908 1.002246 L 158.972272 1.002246 " stroke="#ffffff" stroke-width="2" stroke-opacity="1" stroke-miterlimit="4"/><g clip-path="url(#4e20b6b0f6)"><g><g clip-path="url(#bc90c9174a)"><g clip-path="url(#6ad793e583)"><g clip-path="url(#7f53d260a9)"><rect x="-84.48" width="552.96" fill="#00bf63" height="552.959979" y="-84.479997" fill-opacity="1"/></g></g></g></g></g><g clip-path="url(#dcdfbb702e)"><path fill="#ffffff" d="M 101.832031 221.210938 C 107.96875 223.820312 109.511719 227.175781 107.871094 232.699219 C 101.738281 253.316406 91.527344 271.625 77.695312 288.007812 C 74.96875 291.230469 72.09375 294.410156 69.824219 297.953125 C 66.242188 303.574219 67.367188 309.785156 72.226562 313.917969 C 77.121094 318.09375 83.65625 318.511719 88.402344 313.804688 C 104.273438 298.105469 118.351562 280.960938 127.914062 260.554688 C 128.980469 258.289062 128.695312 254.78125 127.761719 252.34375 C 126.105469 248.039062 123.457031 244.113281 121.265625 240.015625 C 115.988281 230.167969 110.730469 220.296875 106.121094 211.667969 C 101.777344 214.199219 97.011719 218.46875 91.507812 219.878906 C 79.3125 223.023438 68.035156 212.867188 70.910156 200.75 C 76.570312 176.839844 84.132812 153.386719 98.402344 132.960938 C 106.539062 121.320312 118.199219 115.453125 132.679688 115.699219 C 140.71875 115.832031 148.757812 115.699219 156.816406 115.757812 C 170.726562 115.851562 179.242188 120.941406 183.492188 133.992188 C 189.796875 153.40625 197.589844 172.039062 207.914062 189.621094 C 211.363281 195.472656 211.171875 201.585938 208.832031 207.96875 C 208.066406 210.066406 208.316406 213.667969 209.667969 215.230469 C 219.59375 226.660156 231.121094 236.1875 244.820312 242.949219 C 248.554688 244.796875 250.726562 243.558594 252.554688 240.246094 C 254.59375 236.546875 256.5 232.71875 259.070312 229.386719 C 269.835938 215.417969 289.003906 213.972656 301.195312 226.660156 C 306.722656 232.414062 312.226562 237.386719 320 239.941406 C 325.355469 241.691406 326.992188 248.4375 324.898438 255.90625 C 321.523438 267.964844 310.226562 275.054688 297.957031 272.289062 C 292.792969 271.128906 288.832031 271.699219 285.859375 276.347656 C 282.867188 280.996094 281 285.285156 285.230469 290.601562 C 288.886719 295.191406 291.667969 300.546875 294.601562 305.6875 C 299.15625 313.652344 298.585938 320.015625 293.175781 324.664062 C 287.554688 329.503906 279.570312 329.179688 272.828125 323.828125 C 271.855469 323.046875 270.941406 322.207031 269.988281 321.386719 C 267.855469 323.425781 266.0625 325.5625 263.871094 327.140625 C 253.890625 334.304688 240.6875 328.875 238.53125 316.816406 C 235.464844 299.667969 235.464844 299.667969 215.804688 302.394531 C 217.195312 305.957031 218.851562 309.347656 219.804688 312.929688 C 220.472656 315.464844 220.964844 318.550781 220.109375 320.855469 C 219.308594 323.027344 216.621094 324.53125 214.773438 326.324219 C 213.632812 324.304688 212.222656 322.398438 211.363281 320.265625 C 208.964844 314.207031 207 307.957031 204.488281 301.953125 C 201.992188 296.011719 203.246094 293.019531 209.746094 292.523438 C 220.261719 291.722656 230.835938 291.113281 241.371094 291.210938 C 243.199219 291.230469 246.117188 294.960938 246.574219 297.34375 C 247.523438 302.277344 247.144531 307.460938 247.316406 312.527344 C 247.488281 317.347656 249.105469 320.929688 254.746094 320.644531 C 260.804688 320.339844 260.917969 315.976562 260.765625 311.5 C 260.730469 310.453125 260.691406 309.386719 260.539062 308.335938 C 259.03125 298.46875 261.167969 289.914062 269.265625 283.320312 C 270.84375 282.027344 272.523438 280.179688 272.960938 278.292969 C 273.417969 276.367188 273.152344 273.128906 271.894531 272.15625 C 265.015625 266.898438 257.832031 261.984375 250.496094 257.371094 C 248.363281 256.019531 245.296875 255.5625 242.6875 255.640625 C 227.042969 256.078125 211.402344 256.972656 195.742188 257.164062 C 193.398438 257.203125 191.035156 254.304688 188.671875 252.761719 C 190.902344 251.085938 193.074219 248.054688 195.378906 247.941406 C 206.144531 247.425781 216.925781 247.714844 227.710938 247.714844 C 227.863281 247.085938 228.035156 246.476562 228.1875 245.847656 C 227.367188 244.875 226.625 243.789062 225.691406 242.929688 C 216.832031 234.777344 207.933594 226.660156 199.019531 218.542969 C 197.800781 217.4375 196.523438 215.742188 195.132812 215.589844 C 184.308594 214.484375 177.925781 207.265625 172.019531 199.300781 C 171.164062 198.140625 170.152344 197.074219 168.210938 194.785156 C 167.449219 204.464844 165.238281 212.523438 168.761719 221.171875 C 180.671875 250.324219 192.199219 279.644531 203.6875 308.984375 C 208.660156 321.675781 202.007812 332.515625 188.445312 334.382812 C 172.515625 336.59375 162.285156 331.484375 155.730469 316.664062 C 148.816406 301.019531 142.796875 284.960938 136.011719 268.195312 C 133.859375 271.355469 131.972656 274.460938 129.78125 277.320312 C 118.960938 291.382812 108.5 305.746094 97.070312 319.292969 C 88.933594 328.933594 75.046875 329.179688 65.613281 321.21875 C 56.699219 313.691406 55.820312 300.527344 63.136719 290.179688 C 72.054688 277.605469 81.21875 265.164062 89.203125 252.019531 C 93.640625 244.722656 95.90625 236.089844 99.148438 228.070312 C 100.003906 225.992188 100.804688 223.859375 101.832031 221.210938 Z M 144.070312 125.417969 C 124.449219 122.214844 109.492188 129.246094 101.28125 147.308594 C 93.582031 164.207031 87.335938 181.753906 80.628906 199.09375 C 78.816406 203.777344 79.867188 208.046875 84.800781 210.292969 C 89.675781 212.503906 93.5625 210.292969 96.289062 206.3125 C 98.0625 203.742188 99.164062 200.671875 100.386719 197.757812 C 105.832031 184.6875 111.246094 171.582031 116.636719 158.492188 C 117.914062 155.367188 119.53125 152.203125 123.496094 153.785156 C 127.6875 155.441406 125.324219 158.605469 124.351562 161.292969 C 122.636719 166.074219 121.132812 170.933594 119.246094 175.636719 C 112.503906 192.558594 114.386719 208.410156 123.382812 224.242188 C 132.355469 240.015625 140.585938 256.269531 148.261719 272.710938 C 154.796875 286.675781 159.769531 301.34375 166.078125 315.40625 C 169.714844 323.523438 177.335938 326.648438 186.140625 325.179688 C 194.695312 323.75 197.664062 318.433594 194.140625 310.527344 C 191.835938 305.308594 188.921875 300.355469 186.84375 295.058594 C 177.46875 271.015625 168.210938 246.949219 159.179688 222.792969 C 157.730469 218.925781 156.816406 214.542969 157.007812 210.464844 C 157.730469 194.824219 159.007812 179.203125 160.132812 163.578125 C 160.285156 161.484375 160.4375 159.273438 161.179688 157.347656 C 161.582031 156.28125 163.21875 155.671875 164.285156 154.851562 C 164.953125 155.824219 165.980469 156.71875 166.210938 157.785156 C 166.878906 160.875 167.164062 164.054688 167.695312 167.179688 C 170.171875 181.5625 178.539062 192.785156 188.082031 203.035156 C 189.949219 205.054688 195.492188 205.625 198.066406 204.332031 C 199.875 203.417969 199.703125 198.234375 200.027344 194.917969 C 200.140625 193.832031 199.152344 192.558594 198.445312 191.507812 C 188.484375 176.589844 182.214844 160.035156 176.460938 143.15625 C 170.898438 126.828125 168.628906 125.664062 151.671875 125.4375 C 149.140625 125.398438 146.605469 125.417969 144.070312 125.417969 Z M 302.1875 264.003906 C 308.988281 263.488281 312.664062 259.847656 315.085938 254.417969 C 316.800781 250.550781 316.054688 247.5625 311.882812 246.492188 C 304.683594 244.664062 300.070312 239.863281 295.402344 234.433594 C 286.21875 223.726562 272.503906 225.210938 265.1875 237.195312 C 263.433594 240.074219 261.433594 242.949219 260.421875 246.113281 C 259.851562 247.921875 260.308594 251.125 261.585938 252.304688 C 266.386719 256.742188 271.703125 260.59375 276.828125 264.667969 C 279.609375 266.898438 282.257812 267.640625 285.078125 264.535156 C 288.316406 260.972656 292.261719 260.574219 296.640625 262.421875 C 298.585938 263.242188 300.699219 263.582031 302.1875 264.003906 Z M 275.285156 292.449219 C 270.082031 296.601562 267.816406 301.34375 270.789062 306.660156 C 273 310.605469 276.542969 313.957031 280.007812 316.96875 C 281.34375 318.128906 284.105469 317.617188 286.21875 317.863281 C 286.410156 315.804688 287.476562 313.292969 286.660156 311.746094 C 283.230469 305.269531 279.265625 299.078125 275.285156 292.449219 Z M 275.285156 292.449219 " fill-opacity="1" fill-rule="nonzero"/></g><g clip-path="url(#bdc65fc115)"><path fill="#ffffff" d="M 148.054688 49.113281 C 165.90625 49.246094 180.269531 63.441406 180.15625 80.816406 C 180.042969 98.726562 165.390625 113.167969 147.652344 112.863281 C 129.136719 112.539062 115.207031 98.761719 115.246094 80.816406 C 115.246094 63.304688 130.085938 48.980469 148.054688 49.113281 Z M 170.230469 81.121094 C 170.363281 68.984375 159.828125 58.542969 147.480469 58.542969 C 135.820312 58.542969 124.847656 69.328125 124.847656 80.777344 C 124.847656 92.914062 135.480469 103.714844 147.445312 103.773438 C 159.75 103.832031 170.097656 93.542969 170.230469 81.121094 Z M 170.230469 81.121094 " fill-opacity="1" fill-rule="nonzero"/></g></svg>